<svg xmlns="http://www.w3.org/2000/svg" viewBox="0 0 255.84 281.46"><defs><style>.cls-1{fill:none;}.cls-2{fill:#385366;}</style></defs><title>left</title><g id="Calque_2" data-name="Calque 2"><g id="Calque_2-2" data-name="Calque 2"><g id="Polygone_1-2" data-name="Polygone 1-2"><path class="cls-1" d="M182.65,6.8a48.54,48.54,0,0,1,73.18,42.25l-1.6,184.21a48.55,48.55,0,0,1-72.83,41.62L24.28,184.17a48.55,48.55,0,0,1-.36-83.88Z"/><path class="cls-2" d="M211.33,41.62a7.6,7.6,0,0,0-8.15,0L44.45,135.15a8.09,8.09,0,0,0,.06,14l157.13,90.72a8.08,8.08,0,0,0,12.13-6.94L215.38,48.7a7.6,7.6,0,0,0-4-7.08m20.23-35a48.07,48.07,0,0,1,24.27,42.47l-1.6,184.21c-.33,37.19-40.62,60.22-72.82,41.62L24.28,184.17c-32.2-18.6-32.41-65-.37-83.88L182.65,6.79A48.07,48.07,0,0,1,231.56,6.58Z"/></g></g></g></svg>