<svg xmlns="http://www.w3.org/2000/svg" viewBox="0 0 1496 734.77"><defs><style>.cls-1{opacity:0.2;}</style></defs><title>logo_lr</title><g id="Calque_2" data-name="Calque 2"><g id="Calque_2-2" data-name="Calque 2"><path d="M77.54,22.48h80.22V455L608.5,301.34v64.33l-531,197.47Z" transform="translate(0 -15.65)"/><path d="M494.19,290.13q-34.54,39.57-99.91,55.13t-99.91-16C263.47,303.86,248,261.1,248,206.52c0-56,15.45-97.1,46.34-128.81q34.54-39.58,99.91-55.15t99.91,16c30.75,24.31,46.13,67.07,46.13,122.75C540.32,216.27,524.94,257.36,494.19,290.13ZM454.37,250.2c14.82-21.45,22.23-49,22.24-83.35,0-34.18-7.42-59.56-22.24-75.41s-34.86-20.78-60.09-14.89-45.37,19.67-60.4,41.14-22.55,49-22.55,83.39,7.51,59.73,22.55,75.47,35.16,20.61,60.4,14.72S439.54,271.64,454.37,250.2Z" transform="translate(0 -15.65)"/><path d="M936.05,22.44h81.49V180.67l190-158.19,115.65,0L1147.62,169.76l293.07,407.48-141-51.72-214.71-304L1017.54,278V422.09l-81.49-31.35Z" transform="translate(0 -15.65)"/><path d="M716.66,356.26c-228.65,86.4-615,231.63-640.37,238.3C26.38,607.69,0,638.72,0,684.28c0,21.07,9.73,38.64,28.14,50.82,18.65,12.34,39.44,14.79,45.37,15.24l1,.08h1344c10.78,0,27.89-3.21,43.6-12.24C1484,725.65,1496,705.84,1496,682.4c0-39.78-33.31-62.77-52.88-70-59.36-23-641-234.65-641-234.65s-31.52-12.65-32.15-15.33M1424,662.11l.12,0c.19.07,18.58,7.73,18.58,20.25,0,11.16-21.7,14.69-24.14,14.74H77c-9.35-1.16-23.66-5.58-23.66-12.86,0-17.64,6.11-30.18,36.56-38.19,31.94-8.4,496.1-183.48,646.76-240.41" transform="translate(0 -15.65)"/><path d="M675.91,32.14q25.61-16.49,62.93-16.49,49,0,81.49,23.43t32.44,69.45q0,28.2-14.07,47.52-8.22,11.72-31.59,29.95l-15.37,11.93q-12.56,9.76-16.66,22.79c-1.73,5.5-2.67,136.51-2.82,148.08H713.45c.87-24.45,3.18-163.82,6.93-173.15s13.41-20.07,29-32.22l15.8-12.37a55.27,55.27,0,0,0,12.54-12.8A43.75,43.75,0,0,0,786.37,112a50.78,50.78,0,0,0-9.63-30.06q-9.65-13.56-35.18-13.56-25.12,0-35.62,16.71t-10.5,34.72H632.73Q635.33,58,675.91,32.14Z" transform="translate(0 -15.65)"/><path class="cls-1" d="M705.23,268.4q-10.4-16.56-10.49-34.38h0v-81.5H632V234h0q2.7,61.57,43.16,87.33a99,99,0,0,0,30.46,12.83V269C705.52,268.82,705.37,268.62,705.23,268.4Z" transform="translate(0 -15.65)"/><path class="cls-1" d="M790.29,220.22V234h0q-.09,17.82-10.48,34.38c-.14.22-.29.42-.44.64v65.14a99.09,99.09,0,0,0,30.47-12.83Q850.25,295.6,853,234h0V160Z" transform="translate(0 -15.65)"/><path d="M634.31,524.07a34.23,34.23,0,0,1,13,9.66,43.46,43.46,0,0,1,7,11.64,38.71,38.71,0,0,1,2.56,14.54,41.39,41.39,0,0,1-5,19.38q-5,9.53-16.42,13.46,9.57,3.86,13.56,10.93t4,21.63v9.29q0,9.48.76,12.85a11.53,11.53,0,0,0,5.33,7.88v3.47h-31.9c-.87-3.06-1.5-5.53-1.87-7.41A67.92,67.92,0,0,1,624,639.48l-.19-12.86q-.18-13.23-4.57-17.64t-16.46-4.41H574.58V658.8H546.34V520.5h66.15Q626.67,520.79,634.31,524.07Zm-59.73,20.45v37.16h31.1q9.27,0,13.9-2.25,8.2-3.95,8.2-15.58,0-12.57-7.93-16.89-4.46-2.43-13.37-2.44Z" transform="translate(0 -15.65)"/><path d="M805.94,545H732.75v29.37h67.18v24H732.75v35.56h76.57V658.8H704.51V520.5H805.94Z" transform="translate(0 -15.65)"/><path d="M851.05,520.69h98.61V545h-69.9V576.8H941v24H879.76v58H851.05Z" transform="translate(0 -15.65)"/></g></g></svg>