<svg xmlns="http://www.w3.org/2000/svg" viewBox="0 0 255.84 281.46"><defs><style>.cls-1{fill:none;}.cls-2{fill:#385366;}</style></defs><title>right</title><g id="Calque_2" data-name="Calque 2"><g id="Calque_2-2" data-name="Calque 2"><g id="Polygone_1-2" data-name="Polygone 1-2"><path class="cls-1" d="M73.19,274.66A48.55,48.55,0,0,1,0,232.41L1.6,48.2A48.55,48.55,0,0,1,74.43,6.58L231.55,97.29a48.56,48.56,0,0,1,.37,83.88Z"/><path class="cls-2" d="M44.5,239.84a7.62,7.62,0,0,0,8.16,0l158.73-93.5a8.1,8.1,0,0,0-.06-14L54.2,41.61a8.09,8.09,0,0,0-12.14,6.94l-1.6,184.21a7.6,7.6,0,0,0,4,7.08m-20.23,35A48.09,48.09,0,0,1,0,232.41L1.61,48.2C1.93,11,42.23-12,74.43,6.57L231.56,97.29c32.2,18.59,32.4,65,.36,83.88L73.19,274.67A48.09,48.09,0,0,1,24.27,274.88Z"/></g></g></g></svg>